<?xml version="1.0" encoding="iso-8859-1"?>
<!-- Generator: Adobe Illustrator 19.0.0, SVG Export Plug-In . SVG Version: 6.00 Build 0)  -->
<svg version="1.1" id="Capa_1" xmlns="http://www.w3.org/2000/svg" xmlns:xlink="http://www.w3.org/1999/xlink" x="0px" y="0px"
	 viewBox="0 0 512 512" style="enable-background:new 0 0 512 512;" xml:space="preserve">
<g>
	<g transform="translate(1 1)">
		<g>
			<path style="fill:#1566C0;" d="M491.203,310.045c-1.707,0.597-3.584,1.28-5.547,1.963c2.202-35.307-0.526-70.748-8.107-105.301
				c-0.171-0.939-0.341-1.963-0.597-2.901c-4.949-25.003-10.581-46.421-14.08-58.368v-0.085c2.912-2.083,4.181-5.785,3.157-9.216
				l-14.421-50.688v-0.341c0.094-2.928-0.776-5.806-2.475-8.192v-0.085c-3.578-5.345-10.222-7.733-16.384-5.888
				c-3.499,1.024-7.509,1.963-11.947,2.816C366.787,84.338,255,84.338,255,84.338s-3.157,0-8.789-0.085
				c-0.796-0.043-1.593-0.043-2.389,0c-32.597-0.341-127.829-2.304-166.571-13.312c-4.737-1.366-9.843-0.313-13.653,2.816
				c-1.061,0.879-1.982,1.915-2.731,3.072v0.085c-1.704,2.481-2.571,5.44-2.475,8.448v0.085l-14.421,50.688
				c-1.024,3.431,0.245,7.133,3.157,9.216v0.085c-3.499,11.947-9.131,33.365-14.08,58.368c-0.256,0.939-0.427,1.963-0.597,2.901
				c-7.58,34.553-10.309,69.995-8.107,105.301c-1.963-0.683-3.84-1.365-5.547-1.963c-2.609-0.907-5.496-0.486-7.738,1.127
				c-2.242,1.613-3.557,4.217-3.526,6.979v16.128c0.006,3.591,2.256,6.796,5.632,8.021c10.411,3.755,35.84,13.397,79.701,32.171
				c37.678,16.872,74.321,35.963,109.739,57.173c4.523,2.73,8.363,5.035,11.349,6.827c3.879,2.366,8.935,1.234,11.435-2.56
				l3.413-5.12c3.438-5.174,3.798-11.807,0.939-17.323c1.072-7.764,5.67-14.599,12.459-18.517c3.897-2.232,8.309-3.408,12.8-3.413
				c12.692-0.044,23.473,9.279,25.259,21.845v0.085c-2.859,5.516-2.5,12.148,0.939,17.323l0.597,0.853l2.816,4.267
				c2.5,3.794,7.556,4.926,11.435,2.56c38.975-23.862,79.418-45.238,121.088-64c43.861-18.773,69.291-28.416,79.701-32.171
				c3.376-1.225,5.626-4.43,5.632-8.021v-16.128c0.031-2.762-1.284-5.366-3.526-6.979
				C496.699,309.559,493.812,309.138,491.203,310.045z"/>
			<path style="fill:#1566C0;" d="M77.251,70.941c38.741,11.008,133.973,12.971,166.571,13.312
				c-9.045,0.085-14.421,0.085-14.421,0.085s-111.787,0-165.803-10.581C67.408,70.628,72.513,69.575,77.251,70.941z"/>
		</g>
		<path style="fill:#2296F3;" d="M476.867,318.151v16.128c-0.006,3.591-2.256,6.796-5.632,8.021
			c-10.411,3.755-35.84,13.397-79.701,32.171c-37.678,16.872-74.322,35.963-109.739,57.173l-0.597-0.853
			c-3.438-5.174-3.798-11.807-0.939-17.323v-0.085c-1.786-12.566-12.566-21.89-25.259-21.845c-4.491,0.005-8.903,1.182-12.8,3.413
			c-6.788,3.919-11.386,10.753-12.459,18.517c2.859,5.516,2.5,12.148-0.939,17.323l-3.413,5.12c-2.5,3.794-7.556,4.926-11.435,2.56
			c-2.987-1.792-6.827-4.096-11.349-6.827c-35.417-21.21-72.061-40.302-109.739-57.173c-43.861-18.773-69.291-28.416-79.701-32.171
			c-3.376-1.225-5.626-4.43-5.632-8.021v-16.128c-0.031-2.762,1.284-5.366,3.526-6.979c2.242-1.613,5.129-2.034,7.738-1.127
			c1.707,0.597,3.584,1.28,5.547,1.963c-2.202-35.307,0.526-70.748,8.107-105.301c0.171-0.939,0.341-1.963,0.597-2.901
			c4.949-25.003,10.581-46.421,14.08-58.368v-0.085c-2.912-2.083-4.181-5.785-3.157-9.216l14.421-50.688v-0.085
			c-0.096-3.008,0.771-5.967,2.475-8.448v-0.085c0.749-1.157,1.669-2.193,2.731-3.072C117.613,84.338,229.4,84.338,229.4,84.338
			s5.376,0,14.421-0.085C250.904,84.338,255,84.338,255,84.338s6.997,0,18.347-0.171c1.451,0,2.901-0.085,4.437-0.085
			c3.328,0,6.997-0.085,10.837-0.171c4.181-0.171,8.704-0.256,13.397-0.427c5.035-0.085,10.24-0.256,15.616-0.512
			c1.707,0,3.328-0.085,4.949-0.171c1.28,0,2.56-0.085,3.84-0.171c3.755-0.171,7.509-0.341,11.349-0.512
			c11.435-0.597,23.04-1.365,34.304-2.219c1.536-0.171,3.072-0.256,4.523-0.427c0.768-0.085,1.451-0.085,2.219-0.171
			c3.157-0.256,6.229-0.597,9.301-0.939c3.413-0.341,6.741-0.683,10.069-1.109c8.192-1.024,15.872-2.219,22.613-3.499
			c1.061,0.879,1.982,1.915,2.731,3.072v0.085c1.699,2.386,2.568,5.264,2.475,8.192v0.341l4.779,16.896l9.643,33.792
			c1.024,3.431-0.245,7.133-3.157,9.216v0.085c0.683,2.219,1.365,4.693,2.133,7.509c3.413,12.459,7.936,30.464,11.947,50.859
			c0.256,0.939,0.427,1.963,0.597,2.901c0.597,2.901,1.109,5.888,1.707,8.875c6.449,31.71,8.602,64.143,6.4,96.427
			c1.963-0.683,3.84-1.365,5.547-1.963c2.609-0.907,5.496-0.486,7.738,1.128C475.582,312.785,476.898,315.389,476.867,318.151z"/>
		<path style="fill:#FEC108;" d="M197.827,130.674c-0.531,0.981-0.878,2.051-1.024,3.157l-5.12,47.275
			c-10.069-1.621-20.139-3.413-30.037-5.461c-37.843-7.767-75.267-17.451-112.128-29.013c-0.859-0.259-1.667-0.663-2.389-1.195
			v-0.085c-2.912-2.083-4.181-5.785-3.157-9.216l14.421-50.688c0.122,6.233,4.208,11.694,10.155,13.568
			C110.792,112.772,154.005,123.354,197.827,130.674z"/>
		<path style="fill:#3F51B5;" d="M161.645,175.645l-0.512,2.56l-17.067,34.133c-25.6,42.667-110.933-8.533-110.933-8.533h-0.085
			c4.949-25.003,10.581-46.421,14.08-58.368c0.722,0.532,1.53,0.936,2.389,1.195C86.378,158.194,123.802,167.878,161.645,175.645z"
			/>
		<path style="fill:#00BCD4;" d="M228.803,430.791l-3.413,5.12c-2.5,3.794-7.556,4.926-11.435,2.56
			c-38.975-23.862-79.418-45.238-121.088-64c-43.861-18.773-69.291-28.416-79.701-32.171c-3.376-1.225-5.626-4.43-5.632-8.021
			v-16.128c-0.031-2.762,1.284-5.366,3.526-6.979c2.242-1.613,5.129-2.034,7.738-1.127c1.707,0.597,3.584,1.28,5.547,1.963
			c31.659,11.179,100.437,36.779,145.323,62.464c27.733,15.787,44.373,26.112,54.357,32.683c2.415,1.581,4.384,3.755,5.717,6.315
			C232.6,418.984,232.241,425.617,228.803,430.791z"/>
		<path style="fill:#FF9801;" d="M230.765,137.586l-5.205,47.701c-0.26,2.252-1.404,4.308-3.18,5.717s-4.04,2.053-6.292,1.793
			l-16.981-1.792c-4.672-0.573-8.017-4.793-7.509-9.472l0.085-0.427l5.12-47.275c0.146-1.106,0.493-2.176,1.024-3.157h0.085
			c1.569-3.048,4.877-4.787,8.277-4.352l16.981,1.877c3.486,0.391,6.387,2.854,7.339,6.229
			C230.771,135.459,230.857,136.527,230.765,137.586z"/>
		<path style="fill:#FFB301;" d="M462.872,145.351v0.085c-0.722,0.532-1.531,0.936-2.389,1.195
			c-4.949,1.536-12.203,3.755-21.077,6.315c-0.768-2.816-1.451-5.291-2.133-7.509v-0.085c2.912-2.083,4.181-5.785,3.157-9.216
			l-9.643-33.792c3.925-1.195,7.509-2.304,10.667-3.328c5.946-1.874,10.033-7.335,10.155-13.568l14.421,50.688
			C467.053,139.566,465.784,143.269,462.872,145.351z"/>
		<path style="fill:#FEC108;" d="M437.272,145.437c0.683,2.219,1.365,4.693,2.133,7.509c-1.365,0.512-2.816,0.853-4.352,1.28
			c-2.901,0.853-5.973,1.707-9.216,2.645c-21.333,5.973-48.725,13.056-77.483,18.773c-9.899,1.963-19.968,3.84-30.037,5.461
			l-5.12-47.275c-0.146-1.106-0.493-2.176-1.024-3.157c40.156-6.637,79.792-16.105,118.613-28.331l9.643,33.792
			c1.024,3.431-0.245,7.133-3.157,9.216V145.437z"/>
		<path style="fill:#283593;" d="M451.608,85.106v0.341c-0.122,6.233-4.208,11.694-10.155,13.568
			c-3.157,1.024-6.741,2.133-10.667,3.328l-4.779-16.896v-0.341c0.094-2.928-0.776-5.806-2.475-8.192v-0.085
			c-0.749-1.157-1.669-2.193-2.731-3.072c4.437-0.853,8.448-1.792,11.947-2.816c6.162-1.845,12.806,0.543,16.384,5.888v0.085
			C450.832,79.3,451.702,82.178,451.608,85.106z"/>
		<path style="fill:#3F51B5;" d="M430.787,102.343c-38.821,12.226-78.457,21.693-118.613,28.331h-0.085
			c-1.569-3.048-4.877-4.787-8.277-4.352l-16.981,1.877c-3.486,0.391-6.387,2.854-7.339,6.229
			c-8.363,0.768-16.555,1.109-24.491,1.109c-7.936,0-16.128-0.341-24.491-1.109c-0.951-3.376-3.853-5.839-7.339-6.229l-16.981-1.877
			c-3.4-0.435-6.709,1.304-8.277,4.352h-0.085c-43.821-7.32-87.035-17.902-129.28-31.659c-5.946-1.874-10.033-7.335-10.155-13.568
			v-0.085c-0.096-3.008,0.771-5.967,2.475-8.448v-0.085c0.749-1.157,1.669-2.193,2.731-3.072c3.81-3.129,8.916-4.182,13.653-2.816
			c38.741,11.008,133.973,12.971,166.571,13.312C250.904,84.338,255,84.338,255,84.338s6.997,0,18.347-0.171
			c1.451,0,2.901-0.085,4.437-0.085c3.328,0,6.997-0.085,10.837-0.171c4.181-0.171,8.704-0.256,13.397-0.427
			c5.035-0.085,10.24-0.256,15.616-0.512c1.707,0,3.328-0.085,4.949-0.171c1.28,0,2.56-0.085,3.84-0.171
			c3.755-0.171,7.509-0.341,11.349-0.512c11.435-0.597,23.04-1.365,34.304-2.219c1.536-0.171,3.072-0.256,4.523-0.427
			c0.768-0.085,1.451-0.085,2.219-0.171c3.157-0.256,6.229-0.597,9.301-0.939c3.413-0.341,6.741-0.683,10.069-1.109
			c8.192-1.024,15.872-2.219,22.613-3.499c1.061,0.879,1.982,1.915,2.731,3.072v0.085c1.699,2.386,2.568,5.264,2.475,8.192v0.341
			L430.787,102.343z"/>
		<path style="fill:#283593;" d="M476.952,203.805h-0.085c-7.516,4.346-15.265,8.277-23.211,11.776
			c-0.597-2.987-1.109-5.973-1.707-8.875c-0.171-0.939-0.341-1.963-0.597-2.901c-4.011-20.395-8.533-38.4-11.947-50.859
			c8.875-2.56,16.128-4.779,21.077-6.315c0.859-0.259,1.667-0.663,2.389-1.195C466.371,157.383,472.003,178.802,476.952,203.805z"/>
		<path style="fill:#3F51B5;" d="M453.656,215.581c-27.136,11.947-70.656,25.173-87.723-3.243l-17.067-34.133l-0.512-2.56
			c28.757-5.717,56.149-12.8,77.483-18.773c3.243-0.853,6.315-1.792,9.216-2.645c1.536-0.427,2.987-0.768,4.352-1.28
			c3.413,12.459,7.936,30.464,11.947,50.859c0.256,0.939,0.427,1.963,0.597,2.901C452.547,209.607,453.059,212.594,453.656,215.581z
			"/>
		<path style="fill:#00BCD4;" d="M502.467,318.151v16.128c-0.006,3.591-2.256,6.796-5.632,8.021
			c-10.411,3.755-35.84,13.397-79.701,32.171c-41.67,18.762-82.113,40.138-121.088,64c-3.879,2.366-8.935,1.234-11.435-2.56
			l-3.413-5.12c-3.438-5.174-3.798-11.807-0.939-17.323v-0.085c1.363-2.516,3.327-4.656,5.717-6.229
			c9.984-6.571,26.624-16.896,54.357-32.683c44.885-25.685,113.664-51.285,145.323-62.464c1.963-0.683,3.84-1.365,5.547-1.963
			c2.609-0.907,5.496-0.486,7.738,1.127C501.182,312.785,502.498,315.389,502.467,318.151z"/>
		<path style="fill:#FF9801;" d="M318.403,181.533c0.508,4.679-2.837,8.899-7.509,9.472l-5.12,0.512l-11.861,1.28
			c-2.252,0.261-4.515-0.384-6.292-1.793c-1.776-1.408-2.921-3.465-3.18-5.717l-5.205-47.701c-0.092-1.059-0.005-2.127,0.256-3.157
			c0.952-3.376,3.853-5.839,7.339-6.229l16.981-1.877c3.4-0.435,6.709,1.304,8.277,4.352h0.085c0.531,0.981,0.878,2.051,1.024,3.157
			l5.12,47.275L318.403,181.533z"/>
		<path style="fill:#FEC108;" d="M284.44,185.287c-10.155,0.939-20.053,1.451-29.44,1.451s-19.285-0.512-29.44-1.451l5.205-47.701
			c0.092-1.059,0.005-2.127-0.256-3.157c8.363,0.768,16.555,1.109,24.491,1.109c7.936,0,16.128-0.341,24.491-1.109
			c-0.261,1.031-0.348,2.098-0.256,3.157L284.44,185.287z"/>
		<path style="fill:#2296F3;" d="M306.2,195.271v76.8c-0.009,23.561-19.106,42.658-42.667,42.667H255v-128
			c9.387,0,19.285-0.512,29.44-1.451c0.26,2.252,1.404,4.308,3.18,5.717c1.776,1.408,4.04,2.053,6.292,1.793l11.861-1.28
			L306.2,195.271z"/>
		<path style="fill:#00838F;" d="M502.467,318.151v16.128c-0.006,3.591-2.256,6.796-5.632,8.021
			c-4.352,1.536-11.349,4.181-21.248,8.107c0.82-1.368,1.261-2.928,1.28-4.523v-16.128c0.031-2.762-1.285-5.366-3.526-6.979
			s-5.129-2.034-7.738-1.128c-1.707,0.597-3.584,1.28-5.547,1.963c-19.541,6.912-53.248,19.285-86.784,33.877
			c40.789-19.371,87.808-36.779,112.384-45.483c1.963-0.683,3.84-1.365,5.547-1.963c2.609-0.907,5.496-0.486,7.738,1.127
			C501.182,312.785,502.498,315.389,502.467,318.151z"/>
	</g>
	<path d="M504.808,305.184c-2.596-1.806-5.648-2.844-8.807-2.997c0.728-32.29-2.318-64.554-9.076-96.137
		c-5-25.685-10.534-46.727-13.587-57.651c2.534-4.069,3.225-9.021,1.904-13.629l-14.367-50.474
		c-0.19-3.646-1.259-7.191-3.117-10.334c-0.158-0.308-0.333-0.608-0.525-0.896c-5.631-8.432-16.09-12.225-25.817-9.363
		C385.992,76.621,257.292,76.775,256,76.775c-1.292,0-129.975-0.15-175.392-13.062c-9.733-2.871-20.202,0.918-25.841,9.354
		c-0.184,0.276-0.35,0.563-0.5,0.858c-2.06,3.364-3.21,7.205-3.338,11.147L36.767,134.75c-1.327,4.608-0.636,9.563,1.9,13.633
		c-3.052,10.92-8.589,31.971-13.592,57.667c-6.758,31.584-9.804,63.85-9.076,96.141c-3.158,0.153-6.21,1.19-8.807,2.993
		c-4.511,3.215-7.19,8.411-7.192,13.95v16.137c0.007,7.174,4.494,13.579,11.233,16.038c11.142,4.029,36.25,13.537,79.275,31.975
		c41.301,18.606,81.384,39.807,120.009,63.474c7.806,4.755,17.975,2.479,23.008-5.15l3.367-5.05
		c4.667-6.659,5.692-15.211,2.731-22.783c1.915-7.474,8.639-12.71,16.355-12.733c7.716-0.024,14.472,5.171,16.432,12.633
		c-2.988,7.599-1.975,16.189,2.7,22.883l3.367,5.05c5.031,7.626,15.195,9.904,23,5.154c38.627-23.669,78.713-44.871,120.017-63.479
		c43.025-18.438,68.133-27.946,79.283-31.975c6.735-2.462,11.218-8.866,11.225-16.037v-16.137
		C511.998,313.595,509.319,308.398,504.808,305.184z M326.857,172.167l-3.665-33.517c41.277-7.4,82.002-17.606,121.892-30.545
		c1.492-0.502,2.93-1.151,4.293-1.938l9.557,33.296C415.623,153.071,371.513,163.993,326.857,172.167z M53.175,139.446l9.467-33.27
		c1.363,0.786,2.801,1.435,4.292,1.936c39.885,12.935,80.604,23.138,121.876,30.538l-3.665,33.516
		C140.517,164.014,96.442,153.086,53.175,139.446z M53.843,157.564c19.986,6.13,56.631,16.725,96.903,25.317l-12.995,26.036
		c-17.541,29.219-76.492,0.747-94.097-8.638C47.375,182.385,51.182,167.374,53.843,157.564z M201.102,183.247l5.19-47.455
		l16.967,1.854l-5.2,47.696h-0.017l-16.958-1.853l0.025-0.072C201.118,183.359,201.094,183.306,201.102,183.247z M239.677,144.508
		c5.414,0.317,10.86,0.534,16.323,0.534c5.463,0,10.908-0.218,16.322-0.534l3.704,33.871c-6.973,0.473-13.754,0.796-20.027,0.796
		c-6.273,0-13.053-0.323-20.027-0.796L239.677,144.508z M305.648,135.799l0.074,0.122l5.176,47.327
		c0.008,0.058-0.016,0.112-0.007,0.17l0.025,0.072l-16.958,1.853l-5.217-47.696L305.648,135.799z M264.533,196.109
		c5.003-0.148,10.246-0.472,15.584-0.879c3.182,4.481,8.329,7.154,13.825,7.179c0.624,0,1.247-0.034,1.867-0.1l2.858-0.313v71.046
		c-0.02,18.843-15.29,34.113-34.133,34.133V196.109z M458.157,157.566c2.661,9.81,6.469,24.822,10.191,42.717
		c-17.597,9.403-76.501,37.968-93.781,9.209L361.26,182.88C401.483,174.298,438.095,163.717,458.157,157.566L458.157,157.566z
		 M69.292,82.092c1.596-1.952,4.221-2.733,6.625-1.971c47.7,13.567,174.7,13.721,180.083,13.721
		c5.383,0,132.383-0.154,180.108-13.729c2.394-0.751,5.004,0.029,6.592,1.971c0.117,0.2,0.242,0.4,0.375,0.596
		c0.33,0.487,0.584,1.021,0.754,1.585c-0.065,0.837-0.005,1.679,0.176,2.498c-0.193,2.403-1.855,4.434-4.171,5.1
		c-40.381,13.119-81.644,23.348-123.477,30.61c-3.515-2.83-8.013-4.143-12.498-3.648l-16.967,1.854
		c-4.595,0.506-8.785,2.863-11.605,6.526c-6.369,0.469-12.817,0.77-19.287,0.77c-6.47,0-12.918-0.301-19.286-0.77
		c-2.82-3.663-7.01-6.02-11.605-6.526l-16.967-1.854c-4.485-0.495-8.983,0.818-12.497,3.648
		c-41.827-7.262-83.084-17.488-123.461-30.602c-2.331-0.672-4-2.721-4.184-5.14c0.177-0.812,0.235-1.645,0.171-2.473
		c0.172-0.561,0.426-1.093,0.755-1.578C69.058,82.488,69.175,82.292,69.292,82.092z M222.692,427.092l-3.317,5.079
		c-39.312-24.082-80.11-45.649-122.15-64.571c-43.417-18.613-68.875-28.25-80.158-32.329v-16.137l-0.05-0.021
		c29.35,10.267,102.667,37.029,149.417,63.738c23.117,13.208,41.25,24.112,53.9,32.413c1.88,1.23,3.186,3.164,3.625,5.367
		C224.419,422.867,223.963,425.195,222.692,427.092z M227.534,399.595c-12.806-8.302-30.458-18.891-52.634-31.561
		c-45.531-23.974-92.827-44.436-141.474-61.209c-1.383-29.827,0.916-59.711,6.845-88.975c15.232,7.816,44.303,20.725,70.312,20.725
		c16.934,1.234,33.156-7.028,42.117-21.45l15.361-30.722c5.685,1.093,11.39,2.117,17.115,3.073
		c2.24,6.014,7.671,10.258,14.049,10.978l16.967,1.854c0.62,0.066,1.243,0.1,1.867,0.1c5.511-0.025,10.67-2.714,13.848-7.217
		c5.358,0.407,10.545,0.684,15.56,0.832v189.18C239.265,387.358,232.159,392.488,227.534,399.595L227.534,399.595z M264.533,385.187
		v-60.945c28.264-0.031,51.169-22.936,51.2-51.2v-73.217c5.112-1.524,9.216-5.354,11.089-10.348
		c5.718-0.961,11.425-1.986,17.119-3.073l15.675,31.297c8.852,14.182,24.836,22.289,41.508,21.054
		c26.033,0,55.299-13.036,70.604-20.901c5.93,29.263,8.229,59.146,6.846,88.971c-48.647,16.772-95.943,37.235-141.474,61.209
		c-22.119,12.638-39.736,23.205-52.535,31.497C279.907,392.423,272.764,387.308,264.533,385.187z M414.775,367.6
		c-42.022,18.913-82.804,40.47-122.1,64.542l-3.367-5.05c-0.686-1.066-1.124-2.273-1.281-3.531c1.332-1.507,2.079-3.442,2.106-5.453
		c0-0.416-0.108-0.802-0.123-1.215c0.473-0.619,1.03-1.168,1.656-1.631c12.65-8.3,30.783-19.204,53.9-32.413
		c44.182-25.242,112.043-50.512,144.101-61.901l0.13-0.046c1.811-0.643,3.566-1.265,5.135-1.816v0.047l0.033,16.125
		C483.65,339.35,458.192,348.988,414.775,367.6z"/>
</g>
<g>
</g>
<g>
</g>
<g>
</g>
<g>
</g>
<g>
</g>
<g>
</g>
<g>
</g>
<g>
</g>
<g>
</g>
<g>
</g>
<g>
</g>
<g>
</g>
<g>
</g>
<g>
</g>
<g>
</g>
</svg>
